<svg width="344" height="344" version="1.1" xmlns="http://www.w3.org/2000/svg" desc="Created with imagetracer.js version 1.2.6" ><path fill="rgb(0,0,0)" stroke="rgb(0,0,0)" stroke-width="1" opacity="0" d="M 0 0 L 344 0 L 344 344 L 0 344 L 0 0 Z M 28 20 L 28 30 L 30 31 L 30 44 L 32 44 L 32 36 L 34 36 L 34 76 L 32 76 L 32 81 L 34 81 L 34 84 L 30 85 L 30 100 Q 33 101 32 98 Q 35 97 34 100 L 39 100 L 39 98 L 42 99 L 40 100 L 67 100 L 68 96 L 70 100 Q 76 101 76 100 L 76 68 L 79 68 L 76 67 L 81 65 L 85 66 Q 87 67 86 64 L 93 65 Q 99 67 101 64 L 116 64 L 116 68 Q 119 67 118 70 L 122 70 L 124 70 L 124 73 L 132 73 L 133 74 L 134 74 L 134 70 L 140 70 L 140 77 L 129 76 L 129 78 Q 124 75 116 76 Q 115 80 118 79 L 118 82 Q 115 83 116 80 Q 112 79 114 84 L 110 82 L 110 79 L 108 79 Q 109 85 106 88 L 105 88 L 106 86 L 104 85 L 102 86 L 102 84 L 98 84 L 100 88 L 96 86 L 96 84 L 92 84 L 92 90 L 96 88 L 94 92 L 92 93 L 95 94 L 94 98 L 93 97 L 92 105 L 94 106 L 92 107 L 94 110 L 93 109 L 92 157 L 92 159 L 93 162 Q 90 165 92 174 L 94 176 L 92 177 L 92 184 Q 95 185 94 182 L 98 182 Q 97 179 100 180 L 101 183 L 102 181 L 102 184 L 105 186 L 102 186 L 102 190 Q 105 189 104 192 L 107 192 L 108 198 L 102 200 L 100 200 L 100 202 L 94 202 L 95 197 L 96 197 L 97 198 L 105 198 L 106 196 Q 107 193 104 194 L 104 192 L 103 194 L 95 194 L 94 192 L 92 193 L 92 228 L 89 228 L 92 233 L 93 241 L 94 238 L 96 240 L 95 240 L 95 242 L 92 242 Q 90 247 94 246 L 95 251 L 94 254 L 98 252 L 98 250 L 100 250 L 98 254 L 96 254 L 96 258 Q 91 256 92 260 L 100 260 L 100 258 Q 104 256 103 260 L 106 258 L 106 260 L 109 260 Q 108 257 111 258 L 111 260 L 114 258 L 116 258 L 117 260 L 124 260 L 125 264 L 140 264 L 140 276 L 142 276 L 142 260 Q 146 259 144 264 L 146 264 L 146 268 L 148 268 L 148 276 L 141 278 L 140 276 L 134 276 L 133 278 L 132 278 L 132 277 L 127 276 Q 123 277 124 281 L 124 283 L 124 292 L 116 292 L 116 308 L 124 308 L 124 322 Q 127 321 126 324 L 130 324 Q 131 321 129 322 L 129 321 L 131 322 Q 133 323 132 320 L 136 320 L 138 324 L 158 324 L 158 322 L 146 322 L 156 320 L 156 318 L 140 318 L 141 316 L 156 316 Q 155 313 159 314 Q 160 317 156 316 L 156 318 L 162 318 L 164 322 L 166 322 L 166 324 L 178 324 L 178 322 L 172 322 L 173 320 L 198 320 Q 197 317 200 318 L 200 316 L 208 316 Q 207 320 212 318 L 212 320 Q 207 322 208 318 L 204 318 L 204 322 L 189 322 L 188 324 L 205 324 L 205 322 L 214 322 Q 213 319 217 320 L 218 318 Q 217 315 220 316 L 220 302 L 219 305 L 218 305 L 219 292 L 219 300 L 220 300 L 220 291 L 218 290 Q 217 287 220 288 L 219 286 L 220 283 Q 222 275 218 276 L 218 278 L 217 276 L 211 276 L 210 277 L 208 276 Q 205 275 206 278 L 204 278 L 204 280 L 195 280 L 200 279 L 200 278 Q 197 279 198 276 L 194 278 L 195 276 L 195 261 L 194 260 L 196 254 L 196 256 L 198 257 L 196 257 L 197 266 L 200 262 L 200 276 L 202 276 L 202 260 Q 206 259 204 264 L 212 264 L 212 266 L 218 265 Q 221 266 220 263 L 223 260 Q 227 261 229 258 L 233 260 L 237 260 Q 236 257 239 258 L 239 260 Q 243 261 244 259 L 243 257 L 245 257 L 246 254 Q 249 253 248 256 L 252 254 Q 254 249 250 250 L 252 247 Q 254 241 251 242 L 251 244 L 248 244 L 250 239 L 248 239 Q 247 236 250 237 L 250 235 L 252 235 L 252 230 L 255 229 L 252 225 L 252 197 L 254 196 L 252 193 L 252 185 L 250 183 L 252 182 L 252 172 L 250 179 L 248 176 L 252 170 Q 254 164 249 166 Q 248 163 252 164 L 252 158 Q 248 157 250 162 Q 245 164 246 160 L 243 162 L 243 161 L 239 160 L 243 158 Q 245 159 244 157 L 242 156 Q 239 157 240 154 L 238 154 L 238 152 Q 234 151 236 156 L 232 156 Q 233 153 230 154 L 230 152 L 236 152 L 236 148 Q 233 147 234 150 L 228 150 L 228 148 L 220 148 L 220 144 Q 216 143 218 148 L 212 150 L 187 150 L 190 146 Q 192 145 191 148 L 192 148 L 191 136 L 190 141 L 189 141 L 190 124 L 190 132 L 194 132 L 194 114 Q 191 113 192 116 L 191 116 L 193 112 L 193 110 L 189 110 L 189 101 L 190 100 Q 192 93 189 92 L 190 86 L 190 90 L 191 90 L 191 84 L 194 84 L 194 69 L 196 67 L 204 66 L 204 65 Q 199 64 198 66 L 190 66 L 189 64 L 190 64 Q 189 66 196 65 L 195 64 L 197 64 L 212 64 L 213 63 L 215 64 Q 222 62 220 68 L 230 68 L 225 67 L 225 66 L 250 66 Q 249 69 255 68 L 255 66 L 269 67 L 267 69 Q 269 75 266 77 Q 265 81 267 83 L 266 85 L 266 92 Q 269 91 268 94 L 271 94 L 269 97 L 276 99 L 275 99 L 275 100 L 284 100 L 284 98 Q 291 99 294 97 L 292 96 Q 300 96 304 92 L 304 94 L 300 97 L 300 98 L 294 98 L 295 100 L 309 100 L 308 98 L 309 96 L 309 98 L 310 98 Q 309 95 312 96 Q 313 93 310 94 Q 309 91 312 92 L 313 87 L 314 87 L 314 98 Q 311 97 312 100 L 316 100 L 316 68 L 314 69 L 314 84 L 313 84 L 313 76 L 310 76 L 310 53 L 313 52 L 313 45 L 314 44 Q 316 38 313 37 L 316 36 Q 317 33 314 34 Q 313 31 316 32 L 316 26 Q 313 25 314 28 L 310 28 L 310 30 L 306 28 L 306 24 L 302 24 L 302 26 Q 299 25 300 28 L 284 28 L 285 26 L 300 26 L 300 24 L 286 24 L 284 20 Q 279 18 280 22 L 261 22 L 260 20 L 204 20 L 205 22 L 252 22 L 252 26 L 260 26 L 260 28 L 237 28 L 236 26 Q 231 24 232 28 L 228 29 Q 221 31 220 28 Q 215 27 214 29 L 212 28 Q 205 26 204 29 L 187 29 L 186 28 L 173 28 L 172 26 Q 167 24 168 28 L 162 28 L 161 29 Q 154 31 156 26 L 125 26 L 124 28 L 109 28 L 108 26 L 77 26 L 76 28 L 65 28 L 64 26 L 44 26 L 45 22 L 60 22 L 60 20 L 40 20 L 41 23 L 40 25 Q 41 28 37 26 Q 36 23 39 24 L 39 20 L 36 20 L 34 24 L 32 24 L 32 26 L 30 24 Q 31 19 28 20 Z M 32 20 Q 31 23 34 22 Q 35 19 32 20 Z M 66 20 L 66 22 L 60 22 L 61 24 L 76 24 L 76 22 L 69 22 Q 69 19 66 20 Z M 108 20 L 109 22 L 140 22 L 140 20 L 108 20 Z M 156 20 L 157 22 L 172 22 L 172 20 L 156 20 Z M 306 20 Q 305 23 308 22 Q 309 19 306 20 Z M 172 22 L 173 24 L 188 24 L 188 22 L 172 22 Z M 196 23 L 196 26 L 204 26 L 204 23 L 196 23 Z M 188 26 L 189 28 L 196 28 L 196 26 L 188 26 Z M 101 65 L 102 67 L 101 67 L 101 68 L 114 67 L 101 65 Z M 91 66 L 91 67 L 100 67 L 91 66 Z M 205 66 L 205 67 Q 211 66 214 68 L 214 66 L 205 66 Z M 241 67 L 241 68 L 244 68 L 241 67 Z M 215 76 L 215 77 L 218 77 L 215 76 Z M 210 77 L 209 78 L 204 78 L 204 83 L 198 82 L 196 86 L 198 87 L 196 88 Q 193 89 194 86 L 192 86 L 191 91 L 192 98 Q 195 99 194 96 L 197 96 L 197 94 L 198 94 L 198 98 L 194 100 Q 192 106 197 104 L 197 109 L 195 109 L 197 112 L 195 115 L 195 120 L 198 121 L 198 132 L 200 132 L 200 118 L 202 119 L 202 132 Q 205 131 204 134 L 207 134 Q 208 131 205 132 L 206 130 Q 205 127 208 128 L 208 126 L 214 127 L 210 128 L 210 132 L 212 132 L 212 136 Q 215 135 214 138 L 216 139 L 214 139 L 214 140 Q 221 141 220 138 L 236 138 L 236 142 Q 239 141 238 144 L 243 144 Q 244 141 240 142 L 240 140 L 246 140 Q 245 144 250 142 L 250 144 L 252 144 L 252 137 L 252 135 Q 254 128 250 129 Q 249 125 252 126 L 252 103 L 250 102 Q 249 99 252 100 L 252 94 L 250 94 L 252 92 L 252 84 L 245 84 L 244 85 L 239 84 L 239 86 Q 235 87 236 84 L 230 84 L 229 85 L 222 83 L 225 82 Q 226 78 221 80 L 221 82 L 220 78 L 210 77 Z M 196 79 L 197 81 Q 198 78 196 79 Z M 202 79 L 200 82 L 202 81 L 202 79 Z M 268 98 Q 267 101 271 100 Q 272 97 268 98 Z M 190 102 Q 189 105 192 104 Q 193 101 190 102 Z M 196 132 L 196 148 L 198 148 L 198 133 L 196 132 Z M 206 138 Q 205 142 210 140 Q 211 136 206 138 Z M 204 140 Q 203 143 206 142 Q 207 139 204 140 Z M 212 142 Q 214 147 210 146 Q 209 149 213 148 L 214 146 Q 215 141 212 142 Z M 220 142 L 221 144 L 236 144 L 236 142 L 220 142 Z M 204 144 Q 202 150 208 148 L 206 144 L 204 144 Z M 242 146 L 243 148 L 252 148 L 252 146 L 242 146 Z M 248 150 L 248 156 L 252 156 L 252 150 L 248 150 Z M 245 258 Q 244 261 248 260 Q 249 257 245 258 Z M 250 258 Q 249 261 252 260 Q 253 257 250 258 Z M 204 266 L 205 268 L 212 268 L 212 266 L 204 266 Z M 218 322 Q 217 325 220 324 Q 221 321 218 322 Z " /><path fill="rgb(0,0,0)" stroke="rgb(0,0,0)" stroke-width="1" opacity="0" d="M 37.5 28 L 40 28.5 Q 37.9 31.8 37.5 28 Z " /><path fill="rgb(0,0,0)" stroke="rgb(0,0,0)" stroke-width="1" opacity="0" d="M 36.5 33 L 38 35.5 L 37 35.5 L 36.5 33 Z " /><path fill="rgb(0,0,0)" stroke="rgb(0,0,0)" stroke-width="1" opacity="0" d="M 307.5 36 L 308 38.5 L 307 38.5 L 307.5 36 Z " /><path fill="rgb(0,0,0)" stroke="rgb(0,0,0)" stroke-width="1" opacity="0" d="M 306.5 44 L 307 48.5 L 306 48.5 L 306.5 44 Z " /><path fill="rgb(0,0,0)" stroke="rgb(0,0,0)" stroke-width="1" opacity="0" d="M 306.5 52 L 307 65.5 L 306 65.5 L 306.5 52 Z " /><path fill="rgb(0,0,0)" stroke="rgb(0,0,0)" stroke-width="1" opacity="0" d="M 124 64 Q 127 63 126 66 Q 123 67 124 64 Z " /><path fill="rgb(0,0,0)" stroke="rgb(0,0,0)" stroke-width="1" opacity="0" d="M 141 64 L 150 66 L 149.5 68 L 146.5 66 L 146 68.5 L 146 70 L 148 70.5 L 148 77 L 142 76 L 142 72.5 Q 145.3 73.3 144 68 L 132.5 68 L 132 66 L 140.5 66 L 141 64 Z " /><path fill="rgb(0,0,0)" stroke="rgb(0,0,0)" stroke-width="1" opacity="0" d="M 189.5 68 L 190 75.5 L 189 75.5 L 189.5 68 Z " /><path fill="rgb(0,0,0)" stroke="rgb(0,0,0)" stroke-width="1" opacity="0" d="M 306.5 68 L 307 75.5 L 306 75.5 L 306.5 68 Z " /><path fill="rgb(0,0,0)" stroke="rgb(0,0,0)" stroke-width="1" opacity="0" d="M 152.5 70 L 153 73 Q 156.3 71.9 155 76 L 152 76 L 152.5 70 Z " /><path fill="rgb(0,0,0)" stroke="rgb(0,0,0)" stroke-width="1" opacity="0" d="M 147.5 78 L 147 79.5 L 147.5 81 L 149 80.5 Q 150.8 89.3 147 92.5 L 147 103.5 L 148 103.5 L 148.5 102 L 149 103.5 L 147.5 106 L 146 103.5 L 146 90.5 L 148 86.5 L 147 84.5 L 148 82 Q 144.9 82.8 145.5 80 L 140.5 80 L 140.5 79 Q 146 80.5 147.5 78 Z " /><path fill="rgb(0,0,0)" stroke="rgb(0,0,0)" stroke-width="1" opacity="0" d="M 152.5 80 L 153 83.5 L 152 83.5 L 152.5 80 Z " /><path fill="rgb(0,0,0)" stroke="rgb(0,0,0)" stroke-width="1" opacity="0" d="M 37 84 Q 39.7 82.9 39 85.5 L 37.5 88 Q 34.8 86.8 37 85.5 L 37 84 Z " /><path fill="rgb(0,0,0)" stroke="rgb(0,0,0)" stroke-width="1" opacity="0" d="M 150.5 84 L 151 95.5 L 150 95.5 L 150.5 84 Z " /><path fill="rgb(0,0,0)" stroke="rgb(0,0,0)" stroke-width="1" opacity="0" d="M 32 86 L 34 86 L 34 92 L 32 92 L 32 86 Z " /><path fill="rgb(0,0,0)" stroke="rgb(0,0,0)" stroke-width="1" opacity="0" d="M 247.5 86 Q 251.3 84.8 250 88.5 L 247.5 86 Z " /><path fill="rgb(0,0,0)" stroke="rgb(0,0,0)" stroke-width="1" opacity="0" d="M 238.5 87 L 242 88 Q 243.1 90.7 240.5 90 L 238.5 87 Z " /><path fill="rgb(0,0,0)" stroke="rgb(0,0,0)" stroke-width="1" opacity="0" d="M 152.5 88 L 153 95.5 L 152 95.5 L 152.5 88 Z " /><path fill="rgb(0,0,0)" stroke="rgb(0,0,0)" stroke-width="1" opacity="0" d="M 306.5 90 L 307.5 92 Q 304.7 92.7 306.5 90 Z " /><path fill="rgb(0,0,0)" stroke="rgb(0,0,0)" stroke-width="1" opacity="0" d="M 245.5 92 L 244.5 94 L 245.5 92 Z " /><path fill="rgb(0,0,0)" stroke="rgb(0,0,0)" stroke-width="1" opacity="0" d="M 62 94 Q 65.7 92.8 64 98 Q 60.3 99.2 62 94 Z " /><path fill="rgb(0,0,0)" stroke="rgb(0,0,0)" stroke-width="1" opacity="0" d="M 72.5 94 Q 74.8 93.3 74 95.5 L 72.5 94 Z " /><path fill="rgb(0,0,0)" stroke="rgb(0,0,0)" stroke-width="1" opacity="0" d="M 246.5 94 L 248 94.5 L 245.5 96 L 246.5 94 Z " /><path fill="rgb(0,0,0)" stroke="rgb(0,0,0)" stroke-width="1" opacity="0" d="M 280 94 Q 283.3 92.7 282 97.5 L 281 97.5 L 280 94 Z " /><path fill="rgb(0,0,0)" stroke="rgb(0,0,0)" stroke-width="1" opacity="0" d="M 284 94 L 289 94 L 289 96 L 284 96 L 284 94 Z " /><path fill="rgb(0,0,0)" stroke="rgb(0,0,0)" stroke-width="1" opacity="0" d="M 44 96 L 59.5 96 L 60 98 L 44.5 98 L 44 96 Z " /><path fill="rgb(0,0,0)" stroke="rgb(0,0,0)" stroke-width="1" opacity="0" d="M 152 100 Q 155.8 98.5 155 101.5 Q 152.8 102.8 154 107.5 Q 156.3 108.7 155 113.5 L 154 113.5 Q 155.3 108.7 152 110 Q 153.7 115.2 150 114 L 149.5 112 L 149 115.5 L 150 116.5 L 150 127.5 L 149 128.5 L 148.5 140 L 148 132 L 146 132.5 L 146 148 L 136 148 L 136 135.5 L 134 132.5 L 140 132 L 138 128 Q 141.7 129.2 140 124 L 135 124 L 135 122 L 140 122 Q 139 125 142 124 L 142 131.5 L 144 132 L 144 121.5 L 148 121 L 148 118.5 L 148 116.5 L 147 111.5 L 149 111.5 Q 149.8 109.3 147.5 110 L 148.5 108 L 149.5 110 L 150 102 Q 153 103 152 100 Z " /><path fill="rgb(0,0,0)" stroke="rgb(0,0,0)" stroke-width="1" opacity="0" d="M 196.5 116 L 198 119 Q 194.5 120.1 196.5 116 Z " /><path fill="rgb(0,0,0)" stroke="rgb(0,0,0)" stroke-width="1" opacity="0" d="M 212.5 117 L 213 119.5 L 211.5 119 L 208 118.5 L 212.5 117 Z " /><path fill="rgb(0,0,0)" stroke="rgb(0,0,0)" stroke-width="1" opacity="0" d="M 131.5 119 L 133.5 122 L 130 121.5 L 132 120.5 L 131.5 119 Z " /><path fill="rgb(0,0,0)" stroke="rgb(0,0,0)" stroke-width="1" opacity="0" d="M 208 121 L 212 122.5 L 208 124 L 208 121 Z " /><path fill="rgb(0,0,0)" stroke="rgb(0,0,0)" stroke-width="1" opacity="0" d="M 250.5 121 L 251 123.5 L 250 123.5 L 250.5 121 Z " /><path fill="rgb(0,0,0)" stroke="rgb(0,0,0)" stroke-width="1" opacity="0" d="M 152.5 126 L 155 132.5 L 155 141.5 L 154 145.5 L 155 148 Q 151.6 148.8 150.5 146 L 149.5 148 L 148 142.5 L 151 140.5 L 150 139.5 L 150 132 L 152 132 L 152.5 126 Z M 153 140 L 152 145 L 153 145 L 153 140 Z " /><path fill="rgb(0,0,0)" stroke="rgb(0,0,0)" stroke-width="1" opacity="0" d="M 214.5 128 L 215 132 Q 212.3 133.1 213 130.5 L 214.5 128 Z " /><path fill="rgb(0,0,0)" stroke="rgb(0,0,0)" stroke-width="1" opacity="0" d="M 130 132 L 132 132.5 L 132 147.5 Q 130.5 150.5 129 147.5 L 130 132 Z " /><path fill="rgb(0,0,0)" stroke="rgb(0,0,0)" stroke-width="1" opacity="0" d="M 249.5 138 L 250.5 140 Q 247.7 140.7 249.5 138 Z " /><path fill="rgb(0,0,0)" stroke="rgb(0,0,0)" stroke-width="1" opacity="0" d="M 178 146 Q 181.7 144.8 180 150 L 172.5 150 L 172 148 L 178 148 L 178 146 Z " /><path fill="rgb(0,0,0)" stroke="rgb(0,0,0)" stroke-width="1" opacity="0" d="M 156.5 148 L 164 148.5 L 156.5 149 L 156.5 148 Z " /><path fill="rgb(0,0,0)" stroke="rgb(0,0,0)" stroke-width="1" opacity="0" d="M 224.5 149 L 227.5 151 L 227.5 152 Q 223 153 222 150.5 L 224.5 149 Z " /><path fill="rgb(0,0,0)" stroke="rgb(0,0,0)" stroke-width="1" opacity="0" d="M 156 150 Q 159 149 158 152 Q 155 153 156 150 Z " /><path fill="rgb(0,0,0)" stroke="rgb(0,0,0)" stroke-width="1" opacity="0" d="M 133.5 153 L 136 153.5 L 133.5 154 L 133.5 153 Z " /><path fill="rgb(0,0,0)" stroke="rgb(0,0,0)" stroke-width="1" opacity="0" d="M 172.5 153 L 176 153.5 L 172.5 154 L 172.5 153 Z " /><path fill="rgb(0,0,0)" stroke="rgb(0,0,0)" stroke-width="1" opacity="0" d="M 182.5 153 L 192 153.5 L 182.5 154 L 182.5 153 Z " /><path fill="rgb(0,0,0)" stroke="rgb(0,0,0)" stroke-width="1" opacity="0" d="M 194.5 153 L 210 153.5 L 194.5 154 L 194.5 153 Z " /><path fill="rgb(0,0,0)" stroke="rgb(0,0,0)" stroke-width="1" opacity="0" d="M 237.5 158 L 236.5 160 L 237.5 158 Z " /><path fill="rgb(0,0,0)" stroke="rgb(0,0,0)" stroke-width="1" opacity="0" d="M 96 172 Q 99 171 98 174 Q 95 175 96 172 Z " /><path fill="rgb(0,0,0)" stroke="rgb(0,0,0)" stroke-width="1" opacity="0" d="M 110 190 Q 115.2 188.3 114 192 Q 108.8 193.7 110 190 Z " /><path fill="rgb(0,0,0)" stroke="rgb(0,0,0)" stroke-width="1" opacity="0" d="M 132.5 190 L 140 190.5 L 132.5 191 L 132.5 190 Z " /><path fill="rgb(0,0,0)" stroke="rgb(0,0,0)" stroke-width="1" opacity="0" d="M 192.5 190 L 199.5 190 Q 204.1 193.1 212 192 L 212 194 Q 209.3 192.9 210 195.5 L 209 195.5 Q 209.8 193.3 207.5 194 Q 203 190.3 194 192 Q 195.1 194.7 192.5 194 L 192.5 195 L 194 195.5 L 192 196 L 191.5 201 L 188 195.5 L 188 191 L 192.5 190 Z " /><path fill="rgb(0,0,0)" stroke="rgb(0,0,0)" stroke-width="1" opacity="0" d="M 124.5 191 L 131 191.5 L 124.5 192 L 124.5 191 Z " /><path fill="rgb(0,0,0)" stroke="rgb(0,0,0)" stroke-width="1" opacity="0" d="M 136 192 L 140 192 L 140.5 195 L 155.5 195 L 154.5 197 L 148 196 L 148 211.5 Q 145.3 210.9 146 214 L 153 214 L 153 217.5 L 152 220 L 150 220 Q 151.7 214.8 148 216 L 149 222 L 152 222.5 L 149 224 L 148.5 226 L 148 220 Q 145.3 218.9 146 221.5 L 143.5 222 Q 140.9 222.7 142 220 Q 147.2 221.7 146 218 L 142 218 L 142 214 Q 139 215 140 212 L 142 211.5 L 142 196 L 134.5 196 L 134 198 L 140 198 L 140 200 L 138 200 Q 139.7 205.2 136 204 Q 137.9 198.4 133 200 L 134 204 Q 129.3 203 128 206.5 L 127.5 208 L 127 206.5 L 130 202 L 127 202 Q 128.1 198.7 124 200 L 124 204 L 118 204 L 118 202 L 108.5 202 L 108 200 L 123.5 200 L 124 198 L 118.5 198 L 118 196.5 L 119 194 L 131.5 195 L 136 194 L 136 192 Z M 126 196 L 128 200 L 130 200 Q 132 194 126 196 Z M 130 200 Q 129 203 132 202 Q 133 199 130 200 Z " /><path fill="rgb(0,0,0)" stroke="rgb(0,0,0)" stroke-width="1" opacity="0" d="M 196 196 L 201.5 196 L 202 196.5 L 202 220.5 L 202 222.5 L 201.5 224 L 200.5 222 L 197.5 226 Q 195.3 225.3 196 227.5 L 197 229.5 L 196 229.5 L 195.5 228 L 195 235.5 L 196 235.5 L 196.5 234 Q 199.3 236.7 198 243.5 L 197 243.5 L 196.5 236 L 196 244 Q 193 243 194 246 Q 197 245 196 248 L 194 248 L 192 252 Q 194.7 250.9 194 253.5 Q 190.3 261.8 192 275.5 L 192.5 277 Q 189.9 275.6 190.5 271 L 189 271.5 Q 188.3 267.3 191 266.5 L 192 256 Q 188.7 254.7 190 259.5 L 189 259.5 L 189.5 228 L 190.5 244 L 191 228 L 195 227.5 L 192 226 L 191 218.5 L 192 218.5 Q 191.3 221.1 194 220 Q 196 214 190 216 L 189.5 218 L 189 206.5 L 190 204.5 L 189.5 203 L 192 204 L 192 213.5 L 194 214 Q 193.3 210.9 196 211.5 L 196 196 Z M 196 213 L 195 216 L 196 216 L 196 213 Z M 196 218 Q 194 223 198 225 L 199 223 L 201 220 L 198 220 Q 199 217 196 218 Z M 192 232 L 193 244 L 194 244 L 194 233 L 192 232 Z " /><path fill="rgb(0,0,0)" stroke="rgb(0,0,0)" stroke-width="1" opacity="0" d="M 212 196 L 215 196.5 L 215 212 L 212 212 L 212 204.5 L 213 200.5 L 212 196 Z " /><path fill="rgb(0,0,0)" stroke="rgb(0,0,0)" stroke-width="1" opacity="0" d="M 152.5 198 L 155 203.5 L 153.5 212 L 152.5 198 Z " /><path fill="rgb(0,0,0)" stroke="rgb(0,0,0)" stroke-width="1" opacity="0" d="M 204 198 L 206 198.5 L 206 212 Q 210.3 211 209.5 214 L 214 214 L 214 215.5 L 215 217.5 L 213.5 220 L 213 218.5 L 214 216 Q 210.2 214.5 211 217.5 L 212 221 L 208 220.5 L 209 218.5 L 208 216 Q 205.3 214.9 206 217.5 L 205 217.5 L 206 212 L 204 211.5 L 204 198 Z " /><path fill="rgb(0,0,0)" stroke="rgb(0,0,0)" stroke-width="1" opacity="0" d="M 95.5 204 L 96 205.5 Q 94.5 208.5 93 205.5 L 95.5 204 Z " /><path fill="rgb(0,0,0)" stroke="rgb(0,0,0)" stroke-width="1" opacity="0" d="M 102 204 Q 107.2 202.3 106 206 Q 100.8 207.7 102 204 Z " /><path fill="rgb(0,0,0)" stroke="rgb(0,0,0)" stroke-width="1" opacity="0" d="M 131.5 208 L 132 210 Q 135 209 134 212 Q 131.3 213.1 132 210.5 L 131.5 208 Z " /><path fill="rgb(0,0,0)" stroke="rgb(0,0,0)" stroke-width="1" opacity="0" d="M 137 208 Q 141.1 206.7 140 210 Q 135.9 211.3 137 208 Z " /><path fill="rgb(0,0,0)" stroke="rgb(0,0,0)" stroke-width="1" opacity="0" d="M 130.5 216 L 132 219.5 L 130 218.5 L 130.5 216 Z " /><path fill="rgb(0,0,0)" stroke="rgb(0,0,0)" stroke-width="1" opacity="0" d="M 138 218 Q 141 217 140 220 Q 137 221 138 218 Z " /><path fill="rgb(0,0,0)" stroke="rgb(0,0,0)" stroke-width="1" opacity="0" d="M 205.5 220 L 206 222 L 210 223 Q 211.1 225.7 208.5 225 L 206 224 L 205.5 220 Z " /><path fill="rgb(0,0,0)" stroke="rgb(0,0,0)" stroke-width="1" opacity="0" d="M 137.5 223 L 138 225 L 131.5 226 L 131 224 L 137.5 223 Z " /><path fill="rgb(0,0,0)" stroke="rgb(0,0,0)" stroke-width="1" opacity="0" d="M 154.5 228 L 155 235.5 L 154 235.5 L 154.5 228 Z " /><path fill="rgb(0,0,0)" stroke="rgb(0,0,0)" stroke-width="1" opacity="0" d="M 147.5 234 L 148 238 L 151 238 L 151 244 L 154 244.5 L 154 249.5 L 155 250.5 L 155 259.5 L 154 259.5 L 153.5 258 L 153 260 Q 147.8 261.8 150 254.5 L 151.5 252 L 152.5 254 L 153 248.5 L 152 246 Q 149.3 247.1 150 244.5 L 149 244.5 L 147.5 248 L 147.5 234 Z " /><path fill="rgb(0,0,0)" stroke="rgb(0,0,0)" stroke-width="1" opacity="0" d="M 243.5 252 L 243 253.5 L 242.5 255 L 242 253.5 L 243.5 252 Z " /><path fill="rgb(0,0,0)" stroke="rgb(0,0,0)" stroke-width="1" opacity="0" d="M 107.5 255 L 108.5 257 L 107.5 255 Z " /><path fill="rgb(0,0,0)" stroke="rgb(0,0,0)" stroke-width="1" opacity="0" d="M 153.5 265 L 154 275.5 L 153 275.5 L 153.5 265 Z " /><path fill="rgb(0,0,0)" stroke="rgb(0,0,0)" stroke-width="1" opacity="0" d="M 151.5 276 L 152 279.5 L 151 279.5 L 151.5 276 Z " /><path fill="rgb(0,0,0)" stroke="rgb(0,0,0)" stroke-width="1" opacity="0" d="M 126.5 278 Q 128.8 277.3 128 279.5 L 126.5 278 Z " /><path fill="rgb(0,0,0)" stroke="rgb(0,0,0)" stroke-width="1" opacity="0" d="M 192.5 278 L 193.5 280 Q 190.7 280.7 192.5 278 Z " /><path fill="rgb(0,0,0)" stroke="rgb(0,0,0)" stroke-width="1" opacity="0" d="M 208 278 Q 212.6 276.8 214 279.5 L 211.5 280 Q 206.7 281.3 208 278 Z " /><path fill="rgb(0,0,0)" stroke="rgb(0,0,0)" stroke-width="1" opacity="0" d="M 140.5 279 L 144 279.5 L 140.5 280 L 140.5 279 Z " /><path fill="rgb(88,105,174)" stroke="rgb(88,105,174)" stroke-width="1" opacity="0.996078431372549" d="M 42 30 L 301.5 30 L 302 30.5 L 302 92 L 269 91.5 L 270 90.5 L 270 63.5 L 268.5 62 L 188 62 L 188 145 L 156 145 L 156 62 L 75.5 62 L 74 63.5 L 74 92 L 42 92 L 42 30 Z " /><path fill="rgb(88,105,174)" stroke="rgb(88,105,174)" stroke-width="1" opacity="0.996078431372549" d="M 128.5 83 L 145 83 L 145 116 L 131.5 116 L 127 119.5 L 127 151.5 L 130.5 155 L 219.5 155 Q 235.5 157.5 243 168.5 L 247 175.5 L 250 186.5 L 250 229.5 Q 247.1 245.1 236.5 253 Q 229.9 258.4 219.5 260 L 199 260 L 199 227 L 213.5 227 L 217 223.5 L 217 191.5 L 212.5 188 L 124.5 188 L 108.5 182 L 101 174.5 L 97 167.5 L 94 155.5 L 94 115.5 L 96 106.5 Q 99.3 97.8 105.5 92 L 117.5 85 L 128.5 83 Z " /><path fill="rgb(88,105,174)" stroke="rgb(88,105,174)" stroke-width="1" opacity="0.996078431372549" d="M 199 83 L 202.5 84 L 203.5 83 L 216.5 83 L 229.5 86 L 242 95.5 L 249 109.5 L 250 135 L 217 135 L 217 119.5 L 212.5 116 L 199 116 L 199 83 Z " /><path fill="rgb(88,105,174)" stroke="rgb(88,105,174)" stroke-width="1" opacity="0.996078431372549" d="M 156 198 L 188 198 L 188 280.5 L 188.5 281 L 217 281 L 217 313 L 127 313 L 127 281 L 156 281 L 156 198 Z " /><path fill="rgb(88,105,174)" stroke="rgb(88,105,174)" stroke-width="1" opacity="0.996078431372549" d="M 94 208 L 125.5 208 L 127 209.5 L 127 223.5 L 130.5 227 L 145 227 L 145 260 L 124.5 260 L 116.5 258 Q 106.8 254.2 101 246.5 L 96 237.5 L 94 228.5 L 94 208 Z " /><path fill="rgb(237,242,249)" stroke="rgb(237,242,249)" stroke-width="1" opacity="0.27058823529411763" d="M 42.5 29 L 302 29.5 L 42 30 L 42 92 L 74 92 L 74 63.5 L 75.5 62 L 156 62 L 156 143.5 L 155 143.5 L 155 63 L 76.5 63 L 75 64.5 L 75 93 L 72.5 94 L 42 94 L 41 91.5 L 41 30.5 L 42.5 29 Z " /><path fill="rgb(237,242,249)" stroke="rgb(237,242,249)" stroke-width="1" opacity="0.27058823529411763" d="M 302.5 32 L 303 83.5 L 302 83.5 L 302.5 32 Z " /><path fill="rgb(237,242,249)" stroke="rgb(237,242,249)" stroke-width="1" opacity="0.27058823529411763" d="M 188 62 L 268.5 62 L 270 63.5 L 269.5 91 L 269 63 L 189 63 L 189 144.5 L 188 144.5 L 188 62 Z " /><path fill="rgb(237,242,249)" stroke="rgb(237,242,249)" stroke-width="1" opacity="0.27058823529411763" d="M 126.5 82 L 132 82.5 L 124.5 84 L 124.5 83 L 126.5 82 Z " /><path fill="rgb(237,242,249)" stroke="rgb(237,242,249)" stroke-width="1" opacity="0.27058823529411763" d="M 145.5 83 L 146 115.5 L 145 115.5 L 145.5 83 Z " /><path fill="rgb(237,242,249)" stroke="rgb(237,242,249)" stroke-width="1" opacity="0.27058823529411763" d="M 217.5 83 L 220 83.5 L 217.5 84 L 217.5 83 Z " /><path fill="rgb(237,242,249)" stroke="rgb(237,242,249)" stroke-width="1" opacity="0.27058823529411763" d="M 117.5 84 L 120 84.5 L 116.5 86 L 117.5 84 Z " /><path fill="rgb(237,242,249)" stroke="rgb(237,242,249)" stroke-width="1" opacity="0.27058823529411763" d="M 302.5 85 L 303 91.5 L 301.5 93 L 269.5 93 L 269.5 92 L 301.5 92 L 302 91.5 L 302.5 85 Z " /><path fill="rgb(237,242,249)" stroke="rgb(237,242,249)" stroke-width="1" opacity="0.27058823529411763" d="M 112.5 86 L 115 86.5 L 106.5 92 L 105 91.5 L 104.5 93 L 104 90 L 108 90 Q 106.8 87 110.5 88 L 112.5 86 Z " /><path fill="rgb(237,242,249)" stroke="rgb(237,242,249)" stroke-width="1" opacity="0.27058823529411763" d="M 198.5 86 L 199 95.5 L 198 95.5 L 198.5 86 Z " /><path fill="rgb(237,242,249)" stroke="rgb(237,242,249)" stroke-width="1" opacity="0.27058823529411763" d="M 232.5 87 L 238 90.5 L 236.5 91 L 232.5 87 Z " /><path fill="rgb(237,242,249)" stroke="rgb(237,242,249)" stroke-width="1" opacity="0.27058823529411763" d="M 101 94 Q 103.7 92.9 103 95.5 Q 97.2 100.1 95.5 109 L 95 106.5 L 101 94 Z " /><path fill="rgb(237,242,249)" stroke="rgb(237,242,249)" stroke-width="1" opacity="0.27058823529411763" d="M 242.5 96 L 243.5 98 L 242.5 96 Z " /><path fill="rgb(237,242,249)" stroke="rgb(237,242,249)" stroke-width="1" opacity="0.27058823529411763" d="M 244.5 99 L 245.5 101 L 244.5 99 Z " /><path fill="rgb(237,242,249)" stroke="rgb(237,242,249)" stroke-width="1" opacity="0.27058823529411763" d="M 198.5 100 L 199 115.5 L 198 115.5 L 198.5 100 Z " /><path fill="rgb(237,242,249)" stroke="rgb(237,242,249)" stroke-width="1" opacity="0.27058823529411763" d="M 94.5 110 L 95 114.5 L 93 115.5 L 94.5 110 Z " /><path fill="rgb(237,242,249)" stroke="rgb(237,242,249)" stroke-width="1" opacity="0.27058823529411763" d="M 249.5 110 L 250 114.5 L 249 114.5 L 249.5 110 Z " /><path fill="rgb(237,242,249)" stroke="rgb(237,242,249)" stroke-width="1" opacity="0.27058823529411763" d="M 134.5 116 L 140 116.5 L 134.5 117 L 134.5 116 Z " /><path fill="rgb(237,242,249)" stroke="rgb(237,242,249)" stroke-width="1" opacity="0.27058823529411763" d="M 129.5 117 L 129 118.5 L 127.5 122 L 127 119.5 L 129.5 117 Z " /><path fill="rgb(237,242,249)" stroke="rgb(237,242,249)" stroke-width="1" opacity="0.27058823529411763" d="M 214.5 117 L 217 120.5 L 215 119.5 L 214.5 117 Z " /><path fill="rgb(237,242,249)" stroke="rgb(237,242,249)" stroke-width="1" opacity="0.27058823529411763" d="M 93.5 132 L 94 147.5 L 93 147.5 L 93.5 132 Z " /><path fill="rgb(237,242,249)" stroke="rgb(237,242,249)" stroke-width="1" opacity="0.27058823529411763" d="M 219.5 135 L 225 135.5 L 219.5 136 L 219.5 135 Z " /><path fill="rgb(237,242,249)" stroke="rgb(237,242,249)" stroke-width="1" opacity="0.27058823529411763" d="M 240.5 135 L 248 135.5 L 240.5 136 L 240.5 135 Z " /><path fill="rgb(237,242,249)" stroke="rgb(237,242,249)" stroke-width="1" opacity="0.27058823529411763" d="M 127.5 149 L 130 154 L 134 154.5 L 130.5 155 Q 125.7 153.7 127.5 149 Z " /><path fill="rgb(237,242,249)" stroke="rgb(237,242,249)" stroke-width="1" opacity="0.27058823529411763" d="M 220.5 155 L 223 155.5 L 220.5 156 L 220.5 155 Z " /><path fill="rgb(237,242,249)" stroke="rgb(237,242,249)" stroke-width="1" opacity="0.27058823529411763" d="M 94.5 156 Q 95.1 167.4 101 173.5 L 99 174 L 94 161.5 L 94.5 156 Z " /><path fill="rgb(237,242,249)" stroke="rgb(237,242,249)" stroke-width="1" opacity="0.27058823529411763" d="M 230.5 158 L 233 159.5 L 231.5 159 L 230.5 158 Z " /><path fill="rgb(237,242,249)" stroke="rgb(237,242,249)" stroke-width="1" opacity="0.27058823529411763" d="M 237.5 162 L 240 162.5 L 239 163.5 L 241.5 167 L 237.5 162 Z " /><path fill="rgb(237,242,249)" stroke="rgb(237,242,249)" stroke-width="1" opacity="0.27058823529411763" d="M 243.5 169 L 246 172.5 L 244 171.5 L 243.5 169 Z " /><path fill="rgb(237,242,249)" stroke="rgb(237,242,249)" stroke-width="1" opacity="0.27058823529411763" d="M 102.5 177 Q 107.9 183.1 117 185.5 L 112.5 186 Q 111.4 183.3 108 184 L 105.5 180 L 104 180.5 Q 105.1 177.2 102.5 178 L 102.5 177 Z " /><path fill="rgb(237,242,249)" stroke="rgb(237,242,249)" stroke-width="1" opacity="0.27058823529411763" d="M 249.5 183 L 250 185.5 L 249 185.5 L 249.5 183 Z " /><path fill="rgb(237,242,249)" stroke="rgb(237,242,249)" stroke-width="1" opacity="0.27058823529411763" d="M 118.5 186 L 124 187.5 L 119.5 188 L 118.5 186 Z " /><path fill="rgb(237,242,249)" stroke="rgb(237,242,249)" stroke-width="1" opacity="0.27058823529411763" d="M 212.5 188 L 217 191.5 L 214.5 190 L 212.5 188 Z " /><path fill="rgb(237,242,249)" stroke="rgb(237,242,249)" stroke-width="1" opacity="0.27058823529411763" d="M 188.5 198 L 189 280 L 216.5 280 L 218 281.5 L 218 312.5 L 216.5 314 L 127.5 314 L 126 312.5 L 126 281.5 L 127.5 280 L 155 280 L 155 199.5 L 156 199.5 L 156 280.5 L 155.5 281 L 127 281 L 127 313 L 217 313 L 217 281 L 188 281 L 188.5 198 Z " /><path fill="rgb(237,242,249)" stroke="rgb(237,242,249)" stroke-width="1" opacity="0.27058823529411763" d="M 125.5 207 L 126.5 209 L 125.5 207 Z " /><path fill="rgb(237,242,249)" stroke="rgb(237,242,249)" stroke-width="1" opacity="0.27058823529411763" d="M 93.5 220 Q 93.3 229.3 96 235.5 L 95 235.5 Q 95.7 232.9 93 234 L 93 231.5 L 94 229.5 L 93 228.5 L 93.5 220 Z " /><path fill="rgb(237,242,249)" stroke="rgb(237,242,249)" stroke-width="1" opacity="0.27058823529411763" d="M 127.5 222 L 130.5 226 L 144.5 226 L 146 227.5 L 145.5 260 L 145 227 L 130.5 227 L 127 223.5 L 127.5 222 Z " /><path fill="rgb(237,242,249)" stroke="rgb(237,242,249)" stroke-width="1" opacity="0.27058823529411763" d="M 216.5 223 L 215.5 225 L 216.5 223 Z " /><path fill="rgb(237,242,249)" stroke="rgb(237,242,249)" stroke-width="1" opacity="0.27058823529411763" d="M 199.5 226 L 203 226.5 L 199.5 227 L 199.5 226 Z " /><path fill="rgb(237,242,249)" stroke="rgb(237,242,249)" stroke-width="1" opacity="0.27058823529411763" d="M 204.5 226 L 214 226.5 L 204.5 227 L 204.5 226 Z " /><path fill="rgb(237,242,249)" stroke="rgb(237,242,249)" stroke-width="1" opacity="0.27058823529411763" d="M 198.5 228 L 199 259.5 L 198 259.5 L 198.5 228 Z " /><path fill="rgb(237,242,249)" stroke="rgb(237,242,249)" stroke-width="1" opacity="0.27058823529411763" d="M 249.5 230 L 250 233.5 L 248.5 236 L 248 234.5 L 249.5 230 Z " /><path fill="rgb(237,242,249)" stroke="rgb(237,242,249)" stroke-width="1" opacity="0.27058823529411763" d="M 96.5 238 L 98 240.5 L 96 239.5 L 96.5 238 Z " /><path fill="rgb(237,242,249)" stroke="rgb(237,242,249)" stroke-width="1" opacity="0.27058823529411763" d="M 243.5 245 L 244 246.5 L 234.5 255 L 235.5 253 L 243 246.5 L 243.5 245 Z " /><path fill="rgb(237,242,249)" stroke="rgb(237,242,249)" stroke-width="1" opacity="0.27058823529411763" d="M 101.5 247 L 112 255.5 L 110.5 256 L 104 252 Q 105.3 249 101.5 250 L 101.5 247 Z " /><path fill="rgb(237,242,249)" stroke="rgb(237,242,249)" stroke-width="1" opacity="0.27058823529411763" d="M 113.5 256 L 116 257.5 L 114.5 258 L 113.5 256 Z " /><path fill="rgb(237,242,249)" stroke="rgb(237,242,249)" stroke-width="1" opacity="0.27058823529411763" d="M 118.5 258 L 124 259.5 L 120.5 260 L 118.5 258 Z " /><path fill="rgb(237,242,249)" stroke="rgb(237,242,249)" stroke-width="1" opacity="0.27058823529411763" d="M 220.5 259 L 223 259.5 L 220.5 260 L 220.5 259 Z " /><path fill="rgb(255,255,254)" stroke="rgb(255,255,254)" stroke-width="1" opacity="0.00784313725490196" d="M 28 20 Q 31.3 18.7 30 23.5 L 31.5 26 L 32 24 Q 35 25 34 22 Q 31 23 32 20 L 36 22 Q 34.9 18.7 39 20 L 39 24 Q 36 23 37 26 Q 40.7 27.5 40 24.5 L 41 22.5 L 40 20 L 59.5 20 L 60 22 L 66 22 Q 65 19 68 20 L 68 22 L 75.5 22 L 76 24 L 60.5 24 L 59.5 22 L 44 22 L 44.5 26 L 63.5 26 L 64.5 28 L 76 28 L 76.5 26 L 108 26 L 108.5 28 L 124 28 L 124.5 26 L 156 26 L 155.5 29 L 42.5 29 L 41 30.5 L 41 91.5 L 42 94 L 61.5 94 L 62 98 L 64 98 L 64 94 L 71.5 94 L 74 95.5 L 73 93.5 L 75 93 L 75 64.5 L 76.5 63 L 154.5 63 L 155 63.5 L 155 73 Q 152 74.3 153 70.5 L 152 70.5 L 152 76 Q 156.5 74.3 155 79.5 L 155 81.5 L 155 99.5 L 150 102 L 150 109.5 L 149 111.5 L 150 114 L 152 114 Q 150.3 108.8 154 110 Q 156.4 117.9 155 131.5 L 154 131.5 L 152.5 126 L 152 132 L 150 132.5 L 150 139.5 L 150.5 141 L 148 142.5 L 149.5 148 L 150.5 146 Q 151.6 148.8 155 148 L 154 142.5 L 155 142.5 L 156.5 145 L 188.5 145 L 189 141.5 L 190.5 136 L 192 147.5 L 191 147.5 Q 191.8 145.3 189.5 146 L 187 149.5 L 211.5 150 L 218 148 L 218 144 Q 221 145 220 142 L 235.5 142 L 236 138 L 220.5 138 Q 221.4 141.2 213.5 140 L 212 137.5 L 213 137.5 Q 212.2 140.1 215.5 139 L 215.5 138 Q 212.9 138.7 214 136 L 212 136 L 212 132.5 Q 208.8 133.3 210 128 L 214 126.5 L 208 126 L 208 128 Q 205.3 126.9 206 129.5 L 205 132 Q 208 131 207 134 L 204 134 Q 205 131 202 132 L 202 118.5 L 200 118 L 200 131.5 L 198 132.5 L 198 147.5 L 196.5 148 L 194.5 149 L 194.5 148 L 196 147.5 L 196 132.5 L 198 131.5 L 198 120 Q 192.8 121.8 195 114.5 L 197 111.5 L 195 108.5 L 197 108.5 L 197 104 Q 192.1 105.6 194 100 L 196 100 L 196 98 Q 198.7 99.1 198 96.5 L 199 96.5 L 198 116 L 212.5 116 L 215 118.5 L 217 121.5 L 217 135 Q 219.1 136.6 224.5 136 L 225.5 135 L 239.5 135 Q 241.3 137.8 247.5 136 L 251 133.5 L 250 129 Q 254 127.6 252 134.5 L 252 136.5 L 252 143.5 L 250 144 L 250 142 Q 244.8 143.7 246 140 L 240 140 L 240 142 Q 244.1 140.7 243 144 L 238 144 Q 239 141 236 142 L 235.5 144 L 220 144 L 220 148 L 227.5 148 L 228 150 L 234 150 Q 233 147 236 148 L 236 152 L 238 152 L 238 154 L 240 154 Q 238.9 156.7 241.5 156 L 244 156.5 Q 244.8 158.8 242.5 158 L 239 159.5 L 242.5 160 L 244.5 160 Q 247.1 159.3 246 162 L 250 162 Q 248.3 156.8 252 158 L 252 164 Q 247.9 162.7 249 166 Q 253.5 164.3 252 169.5 L 251 171.5 L 252 172.5 L 252 182 L 250 182.5 L 252 184.5 L 252 192.5 L 254 196 L 252 196.5 L 252 224.5 L 255 228.5 L 252 230 L 251.5 235 L 250 234.5 L 251 237.5 L 248 244 L 251 243.5 L 250.5 242 Q 253.9 241.1 252 246.5 L 250 250 Q 253.7 248.8 252 254 L 248 256 Q 249 253 246 254 L 244.5 257 L 243 256.5 L 244 258.5 Q 243 261 238.5 260 L 238.5 258 Q 235.9 257.3 237 260 L 232.5 260 Q 230.8 256.9 229 258.5 Q 228.3 256.3 230.5 257 Q 239.3 253.8 244 246.5 L 244 244 L 246 244 Q 244.5 240.2 247.5 241 L 247.5 239 L 250 237.5 L 248 236.5 L 250 233.5 L 250 183.5 L 245 170.5 L 245.5 169 L 242 167.5 L 237.5 162 Q 234.9 162.7 236 160 L 233.5 160 L 231.5 157 L 229.5 158 L 222.5 155 L 134 154.5 L 136 153.5 L 133.5 153 L 130 154 L 127 148.5 L 127 124.5 L 128 121.5 L 130.5 117 L 133.5 116 Q 134.8 118.2 139.5 117 L 147 115.5 L 146 114.5 L 146 104.5 L 147 103.5 L 147 92.5 L 149 89.5 L 149 80.5 L 147 80.5 Q 147.5 77.5 140.5 79 L 140.5 80 L 146 80 L 146 82 Q 148.7 80.9 148 83.5 L 147 85.5 L 148 88.5 L 146 89.5 L 146 83 L 132.5 83 Q 131.3 80.8 126.5 82 Q 124.2 85.2 117.5 84 L 115.5 86 L 108 88 Q 109.2 91.7 104 90 L 104 94 Q 100.3 92.5 101 95.5 Q 94.6 103.1 93 115.5 L 94 116.5 L 94 131.5 L 93 132.5 L 93 147.5 L 94 148.5 L 94 161.5 L 99 174 L 101 174 Q 99.9 176.7 102.5 176 L 102.5 178 Q 105.1 177.2 104 180.5 Q 106 178.8 108 182.5 Q 107.2 185.1 110.5 184 L 112.5 186 Q 118.3 184.7 119.5 188 L 211.5 188 L 217 192.5 L 217 222.5 L 215 226 L 204.5 226 L 203.5 227 L 199 226 L 198 228.5 L 197 243.5 L 198 245.5 L 197 247.5 L 198 248.5 L 198 256 Q 195.3 257.1 196 254.5 L 195 254.5 L 194 259.5 L 195 260.5 L 195 275.5 L 194 278 L 198 276 Q 196.9 278.7 199.5 278 L 199.5 279 L 194.5 280 L 192 278.5 Q 192.7 281.5 189 280 L 189 272.5 L 190.5 271 L 191.5 276 L 192 260.5 L 191 260.5 Q 192.5 266.5 189.5 268 L 189 260.5 L 190 256 Q 193.3 254.7 192 259.5 L 193 259.5 Q 192.4 254.1 194 252 Q 191 253 192 250 L 194 250 L 196 246 Q 193.3 247.1 194 244.5 Q 190.9 239.9 192 232 L 194 232 L 194 243.5 L 196 244 L 195 228 L 191 228.5 L 191 243.5 L 190 243.5 L 189 221.5 L 189 219.5 L 190 216 Q 196 214 194 220 L 192 220 L 192 226 L 195.5 228 L 196 226 L 198 225.5 Q 194.5 223.8 196 218 Q 199 217 198 220 L 200.5 220 L 202 220.5 L 202 196.5 L 201.5 196 L 196 196 L 196 211.5 Q 193.3 210.9 194 214 L 192 214 L 192 204.5 L 190 204 L 189.5 206 L 189 204.5 L 189 202.5 Q 189.5 198 188.5 198 L 156.5 198 L 154.5 202 L 152.5 198 L 152 200.5 L 153 201.5 L 153.5 212 L 154.5 204 L 155 227.5 Q 152.3 229.3 154 235.5 L 155 236.5 L 155 249.5 L 154 249.5 L 154 244 L 151 244 L 151 238 Q 146.5 239.8 148 234.5 L 147 234.5 L 147.5 248 L 149.5 244 L 150 246 Q 152.7 244.9 152 247.5 Q 154.2 248.7 153 253.5 L 152 253.5 L 151.5 252 Q 148.9 254.5 150 260 Q 153.7 261.5 153 258.5 L 154 258.5 L 155 260.5 L 155 280 Q 150.5 281.8 152 276.5 L 151 276.5 L 151 280 L 144.5 280 L 140.5 279 L 139.5 280 L 128 280 Q 129.1 277.3 126.5 278 L 127 279.5 L 126 281.5 L 126 312.5 L 127.5 315 L 129.5 314 L 131.5 315 L 132.5 314 L 156 314 Q 154.9 317.3 159 316 L 159.5 314 L 213.5 314 L 215.5 314 L 218 312.5 Q 216.9 305.4 219.5 302 L 220 316 Q 217.3 314.9 218 317.5 L 217 320 Q 212.8 319 213.5 322 L 205 322 L 204.5 324 L 188 324 L 188.5 322 L 204 322 L 204 318 Q 209.2 319.7 208 316 L 200 316 L 200 318 Q 196.9 317.3 197.5 320 L 172.5 320 L 172 322 L 178 322 L 178 324 L 166.5 324 Q 167.1 321.2 164 322 L 164 320 L 162 320 L 162 318 L 156 318 Q 157.3 321.3 152.5 320 L 146 321.5 L 158 322 L 157.5 324 L 138 324 L 136 320 L 132 320 L 130 324 L 126 324 Q 126.8 320.9 124 321.5 L 124 308 L 116.5 308 L 116 307.5 L 116 292 L 124 292 L 124 282.5 L 124 280.5 Q 123.5 276.5 126.5 276 L 132 276.5 L 131.5 278 L 133 278 L 133.5 276 L 140 276 L 140 264 L 124.5 264 L 124 260 L 142 260 L 142 276 Q 139.3 274.9 140 277.5 L 141.5 277 L 148 276 L 148 268.5 Q 144.7 269.3 146 264 L 144 264 L 144 260 L 146 259.5 L 146 227.5 L 144.5 226 L 132 225.5 L 138 225 L 137.5 223 L 131 224 L 130.5 226 L 127 221.5 L 127 208.5 L 125.5 207 L 124.5 208 L 93 208.5 L 94 209.5 L 94 219.5 L 93 220.5 L 93 228.5 L 94 230.5 L 93 234 Q 95.7 232.9 95 235.5 L 96 238.5 L 94.5 238 L 93 238.5 L 98 241.5 L 98 244 Q 100.7 242.9 100 245.5 L 102 248.5 L 101.5 250 L 104 250 Q 102.9 252.7 105.5 252 L 114 257.5 L 110.5 260 L 110.5 258 Q 107.9 257.3 109 260 L 106 260 L 105.5 258 L 103 259.5 Q 103.7 256.5 100 258 L 99.5 260 L 92 260 Q 90.8 256.3 96 258 L 96 254 Q 93.3 255.1 94 252.5 L 95 250.5 L 94 246 Q 90.3 247.2 92 242 L 95 241.5 L 92 240.5 L 92 232.5 L 89 228 L 92 227.5 L 92 192.5 L 94 192 L 94.5 194 L 103 194 L 104 190 Q 100.3 191.2 102 186 L 105 185.5 L 102 184 L 101.5 181 L 100.5 183 L 100 180 Q 97 179 98 182 L 94 182 Q 95 185 92 184 L 92 176.5 L 93.5 176 L 92 173.5 Q 90.3 165.3 93 161.5 L 92 158.5 L 92 156.5 L 92.5 109 L 94 109.5 L 92 106.5 L 94 105.5 L 92 105 L 92.5 97 L 94 97.5 L 95 93.5 L 92 92.5 L 94 92 Q 94.8 88.9 92 89.5 L 92 84 L 96 84 Q 95 87 98 86 Q 96.8 82.3 102 84 L 102.5 86 L 105.5 85 Q 106.8 87.3 108 84.5 Q 106 77.6 110 79 L 110 82 L 114 84 Q 112.3 78.8 116 80 Q 115 83 118 82 L 118 79 Q 114.7 80.1 116 76 Q 123.9 74.9 128.5 78 L 129 76 L 140 77 L 140 70 L 134 70 L 134 74 L 132.5 74 L 131.5 73 L 124 73 L 123.5 70 L 121.5 70 L 118 70 Q 119 67 116 68 L 115.5 64 L 100.5 64 L 100.5 65 L 114 66.5 L 100.5 68 L 99.5 67 L 90 66.5 L 100 65.5 L 86 64 Q 87.1 66.7 84.5 66 L 80.5 65 L 76 66.5 L 79 67.5 L 76 68 L 76 99.5 Q 75.8 100.8 69.5 100 L 67.5 96 L 67 100 L 40 99.5 L 42 98.5 L 39 98 L 39 100 L 34 100 Q 35 97 32 98 Q 33 101 30 100 L 30 84.5 L 34 84 L 34 81 L 32 81 L 32 76 L 34 75.5 L 34 36 L 32 36 L 32 43.5 L 30 44 L 30 30.5 L 28 29.5 L 28 20 Z M 38 28 Q 38 32 40 29 L 38 28 Z M 124 64 Q 123 67 126 66 Q 127 63 124 64 Z M 141 64 L 141 66 L 132 66 L 133 68 L 144 68 Q 145 73 142 73 L 142 76 L 148 77 L 148 71 L 146 70 L 146 69 L 146 67 L 148 66 L 141 64 Z M 149 66 L 150 68 Q 151 65 149 66 Z M 153 80 L 152 84 L 153 84 L 153 80 Z M 37 84 L 37 86 Q 35 87 38 88 L 39 86 Q 40 83 37 84 Z M 151 84 L 150 96 L 151 96 L 151 84 Z M 32 86 L 32 92 L 34 92 L 34 86 L 32 86 Z M 98 86 Q 97 89 100 88 Q 101 85 98 86 Z M 94 88 Q 93 91 96 90 Q 97 87 94 88 Z M 153 88 L 152 96 L 153 96 L 153 88 Z M 44 96 L 45 98 L 60 98 L 60 96 L 44 96 Z M 149 108 L 147 110 L 149 110 L 149 108 Z M 148 111 L 148 117 L 148 119 L 148 121 L 144 122 L 144 132 L 142 132 L 142 124 Q 138 123 140 128 L 138 128 L 140 132 L 134 133 L 136 136 L 136 148 L 146 148 L 146 133 L 148 132 L 149 140 L 149 129 L 150 128 Q 152 116 148 111 Z M 197 116 Q 194 120 198 119 L 197 116 Z M 213 117 L 208 119 L 212 119 L 213 120 L 213 117 Z M 133 120 L 130 122 L 134 122 L 133 120 Z M 208 121 L 208 124 L 212 123 L 208 121 Z M 135 122 L 135 124 L 140 124 L 140 122 L 135 122 Z M 215 128 L 213 131 Q 212 133 215 132 L 215 128 Z M 130 132 L 129 148 Q 131 151 132 148 L 132 133 L 130 132 Z M 250 138 Q 248 141 251 140 L 250 138 Z M 178 146 L 178 148 L 172 148 L 173 150 L 180 150 Q 182 145 178 146 Z M 157 148 L 157 149 L 164 149 L 157 148 Z M 225 149 L 222 151 Q 223 153 228 152 L 228 151 L 225 149 Z M 156 150 Q 155 153 158 152 Q 159 149 156 150 Z M 230 152 L 232 156 L 236 156 L 236 152 L 230 152 Z M 173 153 L 173 154 L 176 154 L 173 153 Z M 183 153 L 183 154 L 192 154 L 183 153 Z M 195 153 L 195 154 L 210 154 L 195 153 Z M 96 172 Q 95 175 98 174 Q 99 171 96 172 Z M 250 174 L 248 176 L 249 179 L 250 179 L 250 174 Z M 110 190 Q 109 194 114 192 Q 115 188 110 190 Z M 133 190 L 133 191 L 140 191 L 133 190 Z M 193 190 L 188 191 L 188 196 L 192 201 L 192 196 L 194 196 L 193 195 L 193 194 Q 195 195 194 192 L 204 192 Q 200 189 193 190 Z M 125 191 L 125 192 L 131 192 L 125 191 Z M 104 192 Q 103 195 106 194 L 105 197 L 105 198 L 96 198 L 96 196 L 94 202 L 100 202 L 100 200 L 108 198 L 107 194 Q 108 190 104 192 Z M 136 192 L 136 194 L 132 195 L 119 194 L 118 197 L 118 198 L 124 198 L 124 200 Q 128 199 127 202 L 130 202 L 130 200 L 126 198 L 126 196 L 130 196 Q 128 201 132 200 Q 133 203 130 202 Q 129 206 134 204 L 133 200 Q 138 198 136 204 Q 140 205 138 200 L 140 200 L 140 198 L 134 198 L 135 196 L 142 196 L 142 212 L 140 212 Q 139 215 142 214 L 142 218 L 146 218 Q 145 221 148 220 L 149 226 L 149 224 L 152 223 L 149 222 L 148 216 Q 152 215 150 220 L 152 220 L 153 218 L 153 214 L 146 214 Q 145 211 148 212 L 148 196 L 155 197 L 156 195 L 141 195 L 140 192 L 136 192 Z M 205 192 L 205 193 L 208 194 Q 210 193 209 196 L 210 196 Q 209 193 212 194 L 212 192 L 205 192 Z M 212 196 L 213 201 L 212 205 L 212 212 L 215 212 L 215 197 L 212 196 Z M 204 198 L 204 212 L 206 212 L 206 199 L 204 198 Z M 108 200 L 109 202 L 118 202 L 118 204 L 124 204 L 124 200 L 108 200 Z M 96 204 L 93 206 Q 95 209 96 206 L 96 204 Z M 102 204 Q 101 208 106 206 Q 107 202 102 204 Z M 137 208 Q 136 211 140 210 Q 141 207 137 208 Z M 132 210 Q 131 213 134 212 Q 135 209 132 210 Z M 206 212 Q 204 217 208 216 L 209 219 L 208 221 L 212 221 L 211 218 Q 210 215 214 216 L 214 214 L 210 214 Q 210 211 206 212 Z M 131 216 L 130 219 L 132 220 L 131 216 Z M 138 218 Q 137 221 140 220 Q 141 217 138 218 Z M 142 220 Q 141 223 144 222 L 146 222 L 146 220 L 142 220 Z M 206 222 L 206 224 L 209 225 Q 211 226 210 223 L 206 222 Z M 98 250 Q 97 253 100 252 Q 101 249 98 250 Z M 96 252 Q 95 255 98 254 Q 99 251 96 252 Z M 154 265 L 153 276 L 154 276 L 154 265 Z M 140 316 L 141 318 L 156 318 L 156 316 L 140 316 Z M 208 318 Q 207 322 212 320 Q 213 316 208 318 Z " /><path fill="rgb(255,255,254)" stroke="rgb(255,255,254)" stroke-width="1" opacity="0.00784313725490196" d="M 108 20 L 139.5 20 L 140 22 L 108.5 22 L 108 20 Z " /><path fill="rgb(255,255,254)" stroke="rgb(255,255,254)" stroke-width="1" opacity="0.00784313725490196" d="M 156 20 L 171.5 20 L 172.5 22 L 187.5 22 L 188 24 L 172.5 24 L 171.5 22 L 156.5 22 L 156 20 Z " /><path fill="rgb(255,255,254)" stroke="rgb(255,255,254)" stroke-width="1" opacity="0.00784313725490196" d="M 204 20 L 259.5 20 L 260.5 22 L 280 22 Q 278.8 18.3 284 20 L 286 24 L 299.5 24 Q 298.9 26.8 302 26 Q 300.8 22.3 306 24 L 306 28 L 310 30 L 310 28 L 314 28 Q 313 25 316 26 L 316 31.5 Q 313.3 30.9 314 34 Q 317 33 316 36 L 313 36.5 Q 315.5 38 314 43.5 L 313 44.5 L 313 52 L 310 52.5 L 310 76 L 313 76 L 313 83.5 L 314 83.5 L 314 68.5 L 316 68 L 316 99.5 L 312 100 Q 311.3 96.9 314 97.5 L 314 86.5 L 313 86.5 L 312 92 Q 309 91 310 94 Q 313 93 312 96 Q 309.3 94.9 310 97.5 L 309 100 L 294.5 100 L 294 98 L 299.5 98 L 300 96.5 L 301.5 94 L 292 95.5 L 294 96.5 Q 290.9 99.5 284 98 L 283.5 100 L 274.5 100 L 274.5 99 L 276 98.5 L 271 98 Q 272.1 101.3 268 100 Q 266.8 97 270.5 98 L 270.5 97 L 269 96.5 L 270.5 94 L 268 94 Q 269 91 266 92 L 266 84.5 L 267 82.5 Q 264.7 81.3 266 76.5 Q 268.7 74.8 267 68.5 L 268.5 67 L 269 83.5 L 268 85.5 L 269 88.5 Q 268.5 93 269.5 93 L 301.5 93 Q 304.5 91.5 303 85.5 L 303 83.5 L 303 32.5 L 302 29 L 228 28.5 L 232 28 Q 230.8 24.3 236 26 L 236.5 28 L 260 28 L 259.5 26 L 252 26 L 251.5 22 L 204.5 22 L 204 20 Z M 284 26 L 285 28 L 300 28 L 300 26 L 284 26 Z M 308 36 L 307 39 L 308 39 L 308 36 Z M 307 44 L 306 49 L 307 49 L 307 44 Z M 307 52 L 306 66 L 307 66 L 307 52 Z M 307 68 L 306 76 L 307 76 L 307 68 Z M 307 90 Q 305 93 308 92 L 307 90 Z M 304 92 L 302 94 L 304 94 L 304 92 Z M 280 94 L 281 98 L 282 98 Q 283 93 280 94 Z M 284 94 L 284 96 L 289 96 L 289 94 L 284 94 Z " /><path fill="rgb(255,255,254)" stroke="rgb(255,255,254)" stroke-width="1" opacity="0.00784313725490196" d="M 306 20 Q 309 19 308 22 Q 305 23 306 20 Z " /><path fill="rgb(255,255,254)" stroke="rgb(255,255,254)" stroke-width="1" opacity="0.00784313725490196" d="M 196 23 L 204 23 L 204 26 L 196.5 26 L 195.5 28 L 188 28 L 188.5 26 L 196 26 L 196 23 Z " /><path fill="rgb(255,255,254)" stroke="rgb(255,255,254)" stroke-width="1" opacity="0.00784313725490196" d="M 168 26 Q 173.3 24.8 172.5 28 L 185.5 28 L 185.5 29 L 161 28.5 L 168 28 L 168 26 Z " /><path fill="rgb(255,255,254)" stroke="rgb(255,255,254)" stroke-width="1" opacity="0.00784313725490196" d="M 204.5 28 L 212 28.5 L 204.5 29 L 204.5 28 Z " /><path fill="rgb(255,255,254)" stroke="rgb(255,255,254)" stroke-width="1" opacity="0.00784313725490196" d="M 214.5 28 L 220 28.5 L 214.5 29 L 214.5 28 Z " /><path fill="rgb(255,255,254)" stroke="rgb(255,255,254)" stroke-width="1" opacity="0.00784313725490196" d="M 190 63 L 195.5 64 L 196.5 63 L 211.5 63 L 211.5 64 L 196.5 64 L 190 65 L 190 63 Z " /><path fill="rgb(255,255,254)" stroke="rgb(255,255,254)" stroke-width="1" opacity="0.00784313725490196" d="M 214.5 63 L 268.5 63 L 269 66 L 254 66.5 L 254.5 68 Q 248.5 69.3 249.5 66 L 224.5 66 L 224.5 67 L 230 67.5 L 220 68 Q 222.3 61.6 214.5 64 L 214.5 63 Z " /><path fill="rgb(255,255,254)" stroke="rgb(255,255,254)" stroke-width="1" opacity="0.00784313725490196" d="M 198.5 65 L 214 66 Q 215.1 68.7 212.5 68 L 211.5 67 L 200.5 66 L 194 68.5 L 194 83.5 L 191 84 L 191 89.5 L 192 89.5 Q 190.7 84.7 194 86 Q 192.9 88.7 195.5 88 L 198 87 L 197 91.5 L 197 93.5 L 197 96 L 194 96 Q 195 99 192 98 L 189 84.5 L 190 82.5 Q 187.8 81.3 189 76.5 Q 191.8 74.8 190 68.5 L 189 66 L 197.5 66 L 198.5 65 Z " /><path fill="rgb(255,255,254)" stroke="rgb(255,255,254)" stroke-width="1" opacity="0.00784313725490196" d="M 240.5 67 L 244 67.5 L 240.5 68 L 240.5 67 Z " /><path fill="rgb(255,255,254)" stroke="rgb(255,255,254)" stroke-width="1" opacity="0.00784313725490196" d="M 202.5 76 Q 203.5 79 208.5 78 L 212.5 77 L 213.5 78 L 220 78 L 220.5 82 L 221 80 Q 226.2 78.3 225 82 L 222 82.5 L 222.5 84 L 219.5 83 L 204 83 Q 204.8 77.5 202.5 76 Z " /><path fill="rgb(255,255,254)" stroke="rgb(255,255,254)" stroke-width="1" opacity="0.00784313725490196" d="M 214.5 76 L 218 76.5 L 214.5 77 L 214.5 76 Z " /><path fill="rgb(255,255,254)" stroke="rgb(255,255,254)" stroke-width="1" opacity="0.00784313725490196" d="M 195.5 79 Q 197.8 78.3 197 80.5 L 195.5 79 Z " /><path fill="rgb(255,255,254)" stroke="rgb(255,255,254)" stroke-width="1" opacity="0.00784313725490196" d="M 201.5 79 L 203 81.5 L 200 81.5 L 201.5 79 Z " /><path fill="rgb(255,255,254)" stroke="rgb(255,255,254)" stroke-width="1" opacity="0.00784313725490196" d="M 198.5 81 L 198.5 86 Q 195.2 87.1 196 84.5 L 198.5 81 Z " /><path fill="rgb(255,255,254)" stroke="rgb(255,255,254)" stroke-width="1" opacity="0.00784313725490196" d="M 226.5 84 L 228.5 85 L 229.5 84 L 236 84 Q 234.8 87 238.5 86 L 238.5 84 L 243.5 85 L 244.5 84 L 252 84 L 252 91.5 L 251 92.5 L 252 93.5 L 252 100 Q 249 99 250 102 L 252 102.5 L 252 126 Q 249.3 127.1 250 124.5 L 251 121.5 L 250 120.5 L 250 110.5 L 248 103.5 L 240 92 L 238 92 Q 239.1 89.3 236.5 90 L 226.5 85 L 226.5 84 Z M 248 86 L 250 89 Q 251 85 248 86 Z M 240 88 L 242 90 Q 243 87 240 88 Z M 247 94 L 246 96 L 248 95 L 247 94 Z " /><path fill="rgb(255,255,254)" stroke="rgb(255,255,254)" stroke-width="1" opacity="0.00784313725490196" d="M 189.5 92 L 190 99.5 L 189 99.5 L 189.5 92 Z " /><path fill="rgb(255,255,254)" stroke="rgb(255,255,254)" stroke-width="1" opacity="0.00784313725490196" d="M 154.5 102 L 155 107.5 L 154 107.5 L 154.5 102 Z " /><path fill="rgb(255,255,254)" stroke="rgb(255,255,254)" stroke-width="1" opacity="0.00784313725490196" d="M 190 102 Q 193 101 192 104 Q 189 105 190 102 Z " /><path fill="rgb(255,255,254)" stroke="rgb(255,255,254)" stroke-width="1" opacity="0.00784313725490196" d="M 189 110 L 193 110 L 193 111.5 L 192 114 L 194 114.5 L 194 132 L 190 132 L 190 124.5 L 189 123.5 L 189 114.5 L 190 112.5 L 189 110 Z " /><path fill="rgb(255,255,254)" stroke="rgb(255,255,254)" stroke-width="1" opacity="0.00784313725490196" d="M 206 138 Q 211.2 136.3 210 140 L 206 140 Q 207 143 204 142 L 206 138 Z " /><path fill="rgb(255,255,254)" stroke="rgb(255,255,254)" stroke-width="1" opacity="0.00784313725490196" d="M 152.5 140 L 153 144.5 L 152 144.5 L 152.5 140 Z " /><path fill="rgb(255,255,254)" stroke="rgb(255,255,254)" stroke-width="1" opacity="0.00784313725490196" d="M 212 142 Q 215.3 140.7 214 145.5 L 213 148 Q 208.9 149.3 210 146 Q 213.7 147.2 212 142 Z " /><path fill="rgb(255,255,254)" stroke="rgb(255,255,254)" stroke-width="1" opacity="0.00784313725490196" d="M 204 144 L 206 144 L 208 148 Q 202 150 204 144 Z " /><path fill="rgb(255,255,254)" stroke="rgb(255,255,254)" stroke-width="1" opacity="0.00784313725490196" d="M 242 146 L 251.5 146 L 252 148 L 242.5 148 L 242 146 Z " /><path fill="rgb(255,255,254)" stroke="rgb(255,255,254)" stroke-width="1" opacity="0.00784313725490196" d="M 248 150 L 252 150 L 252 156 L 248 156 L 248 150 Z " /><path fill="rgb(255,255,254)" stroke="rgb(255,255,254)" stroke-width="1" opacity="0.00784313725490196" d="M 195.5 213 L 196 215.5 L 195 215.5 L 195.5 213 Z " /><path fill="rgb(255,255,254)" stroke="rgb(255,255,254)" stroke-width="1" opacity="0.00784313725490196" d="M 196 257 Q 199.3 255.9 198 260 L 202 260.5 L 202 276 L 200 275.5 L 200 262.5 L 198 263.5 L 196.5 266 L 196 257 Z " /><path fill="rgb(255,255,254)" stroke="rgb(255,255,254)" stroke-width="1" opacity="0.00784313725490196" d="M 116 258 L 120 259.5 L 116 260 L 116 258 Z " /><path fill="rgb(255,255,254)" stroke="rgb(255,255,254)" stroke-width="1" opacity="0.00784313725490196" d="M 226.5 258 L 225.5 260 L 223 259.5 L 226.5 258 Z " /><path fill="rgb(255,255,254)" stroke="rgb(255,255,254)" stroke-width="1" opacity="0.00784313725490196" d="M 245 258 Q 249.1 256.7 248 260 Q 243.9 261.3 245 258 Z " /><path fill="rgb(255,255,254)" stroke="rgb(255,255,254)" stroke-width="1" opacity="0.00784313725490196" d="M 250 258 Q 253 257 252 260 Q 249 261 250 258 Z " /><path fill="rgb(255,255,254)" stroke="rgb(255,255,254)" stroke-width="1" opacity="0.00784313725490196" d="M 204 260 L 222 260.5 Q 219.3 261.6 220 265 L 212 266 L 211.5 268 L 204 268 L 204 266 L 211.5 266 L 212 264 L 204 264 L 204 260 Z " /><path fill="rgb(255,255,254)" stroke="rgb(255,255,254)" stroke-width="1" opacity="0.00784313725490196" d="M 206 276 L 209.5 277 L 210.5 276 L 217 276 L 217.5 278 L 218 276 Q 221.5 274.9 220 282.5 L 219 285.5 L 220 288 Q 216.5 289.1 218 281.5 L 213.5 279 L 212 279.5 L 212.5 278 L 208.5 278 Q 209.3 281.3 204 280 L 206 276 Z " /><path fill="rgb(255,255,254)" stroke="rgb(255,255,254)" stroke-width="1" opacity="0.00784313725490196" d="M 218 290 L 220 290.5 L 220 299.5 L 219 299.5 Q 219.9 292.7 218 290 Z " /><path fill="rgb(255,255,254)" stroke="rgb(255,255,254)" stroke-width="1" opacity="0.00784313725490196" d="M 218 322 Q 221 321 220 324 Q 217 325 218 322 Z " /></svg>